<svg width="360" height="39" viewBox="0 0 360 39" fill="none" xmlns="http://www.w3.org/2000/svg">
<path d="M50.8342 27.7345V27.7351H47.5151C45.5603 27.7351 43.9584 26.1347 43.9584 24.1777V12.3177C43.9584 10.3594 45.5603 8.75966 47.5151 8.75966H50.8342V8.75835C56.1953 8.75835 60.5456 12.8809 60.5456 18.2481C60.5456 23.6145 56.1953 27.7345 50.8342 27.7345V27.7345ZM51.1364 0.000182831H3.65627C1.63681 0.000182831 0 1.63825 0 3.65926C0 5.67961 1.63681 7.31768 3.65627 7.31768H31.3719C33.3907 7.31768 35.0269 8.95642 35.0269 10.9781C35.0269 13.0011 33.3907 14.6378 31.3719 14.6378H10.9682C8.9487 14.6378 7.31123 16.2759 7.31123 18.2963C7.31123 20.3173 8.9487 21.9553 10.9682 21.9553H31.3719C33.3907 21.9553 35.0269 23.5934 35.0269 25.6144C35.0269 27.6361 33.3907 29.2748 31.3719 29.2748L18.282 29.2755C16.2632 29.2755 14.6264 30.9129 14.6264 32.9339C14.6264 34.9556 16.2632 36.593 18.282 36.593H51.1364C61.235 36.5923 69.4184 28.402 69.4184 18.2963C69.4184 8.19053 61.235 0.00150332 51.1364 0.000182831" fill="#6459A6"/>
<path d="M100.272 24.5999C100.272 20.2951 97.2502 17.3748 93.2054 17.3748C89.1077 17.3748 86.0861 20.2951 86.0861 24.5999C86.0861 28.9054 89.1077 31.8256 93.2054 31.8256C97.2502 31.8256 100.272 28.9054 100.272 24.5999V24.5999ZM106.878 1.53816V37.4126H100.272V34.3887C98.4285 36.7458 95.7144 38.1303 91.9763 38.1303C85.113 38.1303 79.4808 32.2363 79.4808 24.5999C79.4808 16.9641 85.113 11.0708 91.9763 11.0708C95.7144 11.0708 98.4285 12.454 100.272 14.8117V1.53816H106.878ZM131.457 22.1917C130.638 18.5016 127.872 17.016 125.107 17.016C121.574 17.016 119.166 18.9109 118.399 22.1917H131.457ZM125.722 32.1344C128.282 32.1344 130.331 31.0582 131.457 29.5719L136.783 32.6467C134.376 36.1315 130.536 38.1307 125.619 38.1307C117.016 38.1307 111.588 32.2367 111.588 24.5996C111.588 16.9639 117.066 11.0705 125.107 11.0705C132.686 11.0705 138.063 17.0669 138.063 24.5996C138.063 25.5742 137.961 26.445 137.807 27.3172H118.501C119.423 30.699 122.24 32.1344 125.722 32.1344V32.1344ZM161.927 24.5999C161.927 20.2951 158.905 17.3748 154.808 17.3748C150.763 17.3748 147.741 20.2951 147.741 24.5999C147.741 28.9054 150.763 31.8256 154.808 31.8256C158.905 31.8256 161.927 28.9054 161.927 24.5999V24.5999ZM168.532 11.7878V37.4126H161.927V34.3887C160.083 36.6949 157.318 38.1303 153.579 38.1303C146.768 38.1303 141.135 32.2363 141.135 24.5999C141.135 16.9641 146.768 11.0708 153.579 11.0708C157.318 11.0708 160.083 12.5055 161.927 14.8117V11.7878H168.532ZM174.522 -9.89162e-06H181.128V37.4128H174.522V-9.89162e-06ZM210.676 24.5999C210.676 18.5019 205.914 13.6847 199.82 13.6847C193.726 13.6847 188.963 18.5019 188.963 24.5999C188.963 30.6986 193.726 35.5157 199.82 35.5157C205.914 35.5157 210.676 30.6986 210.676 24.5999V24.5999ZM213.237 1.53816V37.4126H210.676V31.4671C208.576 35.4147 204.634 37.9765 199.666 37.9765C192.343 37.9765 186.403 32.1861 186.403 24.5999C186.403 17.0163 192.343 11.2246 199.666 11.2246C204.634 11.2246 208.576 13.7864 210.676 17.7333V1.53816H213.237ZM222.044 23.4219H242.63C242.068 17.1694 237.664 13.6846 232.644 13.6846C226.806 13.6846 222.556 17.7333 222.044 23.4219ZM245.293 24.7028C245.293 25.1142 245.243 25.5235 245.243 25.9329H222.044C222.658 31.7239 227.062 35.5157 232.901 35.5157C237.099 35.5157 240.275 33.5686 241.76 30.853L244.014 32.1861C241.914 35.6702 237.919 37.9764 232.849 37.9764C224.963 37.9764 219.38 32.3399 219.38 24.5998C219.38 17.0671 224.809 11.2246 232.644 11.2246C240.429 11.2246 245.293 17.6818 245.293 24.7028ZM251.284 -9.89162e-06H253.844V37.4128H251.284V-9.89162e-06ZM261.729 11.7874H264.291V37.4128H261.729V11.7874ZM260.961 3.53627C260.961 2.46073 261.883 1.53836 263.01 1.53836C264.137 1.53836 265.058 2.46073 265.058 3.53627C265.058 4.66463 264.137 5.58698 263.01 5.58698C261.883 5.58698 260.961 4.66463 260.961 3.53627ZM293.685 11.7877L282.879 37.4132H279.756L268.9 11.7877H271.664L281.292 34.7477L290.971 11.7877H293.685ZM298.241 23.4219H318.828C318.265 17.1694 313.861 13.6846 308.842 13.6846C303.004 13.6846 298.753 17.7333 298.241 23.4219ZM321.491 24.7028C321.491 25.1142 321.44 25.5235 321.44 25.9329H298.241C298.856 31.7239 303.26 35.5157 309.097 35.5157C313.296 35.5157 316.471 33.5686 317.958 30.853L320.211 32.1861C318.11 35.6702 314.116 37.9764 309.046 37.9764C301.161 37.9764 295.578 32.3399 295.578 24.5998C295.578 17.0671 301.007 11.2246 308.842 11.2246C316.625 11.2246 321.491 17.6818 321.491 24.7028ZM338.593 11.4292V13.8899C334.189 13.8899 330.042 16.6055 330.042 23.1657V37.4125H327.481V11.7877H330.042V16.8095C331.783 12.7616 335.112 11.4292 338.593 11.4292ZM360 30.6988C360 34.9019 356.312 37.976 350.832 37.976C345.711 37.976 342.331 35.5681 341.102 32.2873L343.305 31.0071C344.226 33.7749 346.992 35.5159 350.832 35.5159C354.417 35.5159 357.438 33.9274 357.438 30.6988C357.438 23.7292 341.922 27.7264 341.922 18.5014C341.922 14.4534 345.405 11.2248 350.628 11.2248C354.776 11.2248 357.951 13.2227 359.334 16.3497L357.182 17.5797C356.107 14.9149 353.444 13.6842 350.628 13.6842C347.299 13.6842 344.482 15.4273 344.482 18.5014C344.482 25.3693 360 21.3206 360 30.6988" fill="white"/>
</svg>
