<svg width="70" height="37" viewBox="0 0 70 37" fill="none" xmlns="http://www.w3.org/2000/svg">
<path d="M50.8342 27.7345V27.7351H47.5151C45.5603 27.7351 43.9584 26.1347 43.9584 24.1777V12.3177C43.9584 10.3594 45.5603 8.75966 47.5151 8.75966H50.8342V8.75835C56.1953 8.75835 60.5456 12.8809 60.5456 18.2481C60.5456 23.6145 56.1953 27.7345 50.8342 27.7345ZM51.1364 0.000183105H3.65627C1.63681 0.000183105 0 1.63825 0 3.65926C0 5.67961 1.63681 7.31768 3.65627 7.31768H31.3719C33.3907 7.31768 35.0269 8.95642 35.0269 10.9781C35.0269 13.0011 33.3907 14.6378 31.3719 14.6378H10.9682C8.9487 14.6378 7.31123 16.2759 7.31123 18.2963C7.31123 20.3173 8.9487 21.9553 10.9682 21.9553H31.3719C33.3907 21.9553 35.0269 23.5934 35.0269 25.6144C35.0269 27.6361 33.3907 29.2748 31.3719 29.2748L18.282 29.2755C16.2632 29.2755 14.6264 30.9129 14.6264 32.9339C14.6264 34.9556 16.2632 36.593 18.282 36.593H51.1364C61.235 36.5923 69.4184 28.402 69.4184 18.2963C69.4184 8.19053 61.235 0.00150359 51.1364 0.000183105Z" fill="white"/>
</svg>
